HIERARCHY
ROOT Hips
{
 OFFSET 0.000000 0.000000 0.000000
 CHANNELS 6 Xposition Yposition Zposition Yrotation Xrotation Zrotation
 JOINT Chest
 {
  OFFSET 0.000000 9.585900 0.002600
  CHANNELS 3 Yrotation Xrotation Zrotation
  JOINT Chest2
  {
   OFFSET 0.000000 9.601200 -0.005300
   CHANNELS 3 Yrotation Xrotation Zrotation
   JOINT Chest3
   {
    OFFSET 0.000000 9.561800 0.000000
    CHANNELS 3 Yrotation Xrotation Zrotation
    JOINT Chest4
    {
     OFFSET 0.000000 9.552100 0.000000
     CHANNELS 3 Yrotation Xrotation Zrotation
     JOINT Neck
     {
      OFFSET 0.000000 14.453000 0.000000
      CHANNELS 3 Yrotation Xrotation Zrotation
      JOINT Head
      {
       OFFSET 0.000000 8.936500 -0.011300
       CHANNELS 3 Yrotation Xrotation Zrotation
       End Site
       {
        OFFSET 0.000000 17.073600 -0.006000
       }
      }
     }
     JOINT RightCollar
     {
      OFFSET -2.921100 9.558500 0.000000
      CHANNELS 3 Yrotation Xrotation Zrotation
      JOINT RightShoulder
      {
       OFFSET -13.519700 0.000000 0.000000
       CHANNELS 3 Yrotation Xrotation Zrotation
       JOINT RightElbow
       {
        OFFSET 0.000000 -29.696600 0.000000
        CHANNELS 3 Yrotation Xrotation Zrotation
        JOINT RightWrist
        {
         OFFSET 0.000000 -24.004700 0.000000
         CHANNELS 3 Yrotation Xrotation Zrotation
         End Site
         {
          OFFSET 0.000000 -17.728500 0.000000
         }
        }
       }
      }
     }
     JOINT LeftCollar
     {
      OFFSET 2.921100 9.558500 0.000000
      CHANNELS 3 Yrotation Xrotation Zrotation
      JOINT LeftShoulder
      {
       OFFSET 13.519700 0.000000 0.000000
       CHANNELS 3 Yrotation Xrotation Zrotation
       JOINT LeftElbow
       {
        OFFSET 0.000000 -29.696600 0.000000
        CHANNELS 3 Yrotation Xrotation Zrotation
        JOINT LeftWrist
        {
         OFFSET 0.000000 -24.004700 0.000000
         CHANNELS 3 Yrotation Xrotation Zrotation
         End Site
         {
          OFFSET 0.000000 -17.728500 0.000000
         }
        }
       }
      }
     }
    }
   }
  }
 }
 JOINT RightHip
 {
  OFFSET -7.771700 -0.012900 -0.001300
  CHANNELS 3 Yrotation Xrotation Zrotation
  JOINT RightKnee
  {
   OFFSET 0.000000 -40.869800 0.001200
   CHANNELS 3 Yrotation Xrotation Zrotation
   JOINT RightAnkle
   {
    OFFSET 0.000000 -39.717900 0.002100
    CHANNELS 3 Yrotation Xrotation Zrotation
    JOINT RightToe
    {
     OFFSET 0.000000 -4.965400 11.033500
     CHANNELS 3 Yrotation Xrotation Zrotation
     End Site
     {
      OFFSET 0.000000 -1.423100 5.872300
     }
    }
   }
  }
 }
 JOINT LeftHip
 {
  OFFSET 7.771700 -0.012900 -0.001300
  CHANNELS 3 Yrotation Xrotation Zrotation
  JOINT LeftKnee
  {
   OFFSET 0.000000 -40.869800 0.001200
   CHANNELS 3 Yrotation Xrotation Zrotation
   JOINT LeftAnkle
   {
    OFFSET 0.000000 -39.717900 0.002100
    CHANNELS 3 Yrotation Xrotation Zrotation
    JOINT LeftToe
    {
     OFFSET 0.000000 -4.965400 11.033500
     CHANNELS 3 Yrotation Xrotation Zrotation
     End Site
     {
      OFFSET 0.000000 -1.423100 5.872300
     }
    }
   }
  }
 }
}
MOTION
Frames: 8
Frame Time: 0.008333
0.000000 85.388000 0.000000 0.000000 -5.767877 0.000000 0.000000 11.653817 0.000000 0.000000 -5.885947 0.000000 0.000000 -0.000000 0.000000 0.000000 -0.000000 0.000000 0.000000 12.528835 0.000000 0.000000 0.711642 0.000000 0.000000 -0.000000 0.000000 0.000000 0.000000 -90.000000 0.000000 -2.309062 0.000000 0.000000 2.309062 0.000000 0.000000 -0.000000 0.000000 0.000000 -0.000000 90.000000 0.000000 -2.309062 0.000000 0.000000 2.309062 0.000000 0.000000 8.520406 0.000000 0.000000 1.905762 0.000000 -0.000000 -4.658285 0.000000 0.000000 -0.000000 0.000000 0.000000 8.520406 0.000000 0.000000 1.905762 0.000000 -0.000000 -4.658285 0.000000 0.000000 -0.000000 0.000000
-41.833136 62.109063 13.106093 177.634613 -51.698163 -0.187676 3.821661 27.060338 1.005177 0.552073 4.629856 0.154391 0.882349 7.333486 0.265896 2.846267 21.917506 1.184465 7.228246 15.919943 -1.484802 13.942361 -5.658386 -5.218010 7.226321 6.613992 7.314814 -1.101127 -17.465796 -15.946115 -66.004685 -30.403430 125.814451 -5.417090 -0.153278 3.623162 -11.284187 4.915661 -2.362814 -3.052738 -12.899116 18.924383 75.705229 -44.183597 -122.022063 16.257788 -2.191864 -14.824649 3.183631 -15.128337 -7.323081 -0.726161 61.446625 -4.813696 1.455029 -7.793935 10.466749 0.206812 -0.494376 0.088495 -4.186684 -12.327141 0.545976 27.421174 75.964982 28.209638 0.782892 -11.537667 -4.055075 0.234175 0.727247 0.119002
-41.834172 62.109116 13.106936 177.629404 -51.704924 -0.177631 3.838269 27.042423 0.993122 0.554092 4.623792 0.152077 0.885592 7.324281 0.262251 2.856810 21.906033 1.175280 7.363188 16.043062 -1.495750 14.198629 -5.432680 -5.277833 7.265177 6.701972 7.373373 -1.283658 -17.615691 -15.852937 -65.763880 -29.736570 125.762275 -6.454549 -1.242434 2.292629 -11.252159 5.074123 -2.351315 -2.774230 -13.110592 18.725554 75.618094 -43.764124 -121.927445 16.972622 -2.579084 -14.413744 3.189567 -15.124462 -7.323398 -0.722560 61.451507 -4.817700 1.448707 -7.793498 10.464928 0.211551 -0.498279 0.094743 -4.177288 -12.317628 0.540808 27.393906 75.961508 28.183699 0.785685 -11.542019 -4.056821 0.241862 0.731116 0.120460
-41.835801 62.109306 13.107962 177.633346 -51.711956 -0.171232 3.844771 27.029164 0.978937 0.561586 4.605712 0.136629 0.890719 7.308749 0.248419 2.863168 21.918710 1.188203 7.495475 16.154171 -1.510045 14.443643 -5.226973 -5.339335 7.307832 6.784977 7.426546 -1.465149 -17.747682 -15.753745 -65.700226 -29.212768 125.743744 -7.462401 -2.368744 0.781789 -11.210659 5.229367 -2.343030 -2.490086 -13.311465 18.521498 75.640395 -43.413029 -121.854067 17.692911 -3.010431 -13.937478 3.189986 -15.116963 -7.330562 -0.715972 61.452341 -4.816479 1.447151 -7.798399 10.464209 0.211227 -0.497044 0.097552 -4.177727 -12.310150 0.531668 27.373832 75.960474 28.162076 0.784447 -11.542397 -4.057207 0.239429 0.730493 0.120225
-41.837455 62.109276 13.109434 177.632243 -51.715959 -0.160749 3.856707 27.006498 0.948873 0.556384 4.617638 0.147344 0.892995 7.305510 0.243826 2.873365 21.887455 1.135494 7.629854 16.268000 -1.483261 14.674784 -5.039222 -5.406245 7.358652 6.877874 7.515723 -1.658669 -17.861057 -15.644794 -65.803595 -28.829761 125.743968 -8.393120 -3.476184 -0.915087 -11.165164 5.405939 -2.302665 -2.217119 -13.493135 18.314529 75.781670 -43.135471 -121.799308 18.425202 -3.479477 -13.345199 3.193092 -15.113001 -7.338029 -0.712747 61.452108 -4.818519 1.448586 -7.801450 10.465724 0.203401 -0.495786 0.097276 -4.175696 -12.303483 0.523197 27.344097 75.954791 28.129105 0.786043 -11.543913 -4.057507 0.234460 0.730556 0.116937
-41.840016 62.109670 13.110707 177.632341 -51.721558 -0.145561 3.857382 27.002709 0.922733 0.559649 4.612572 0.140330 0.894149 7.307724 0.243803 2.876112 21.890752 1.141510 7.742373 16.348680 -1.530077 14.889046 -4.868357 -5.481642 7.442136 7.003894 7.524750 -1.900941 -18.015760 -15.510821 -66.029603 -28.580231 125.732673 -9.229942 -4.562278 -2.708602 -11.119603 5.535131 -2.320704 -1.962638 -13.650321 18.101277 76.022981 -42.934999 -121.750877 19.149257 -3.995562 -12.565814 3.195779 -15.106471 -7.347036 -0.717779 61.451726 -4.831545 1.435763 -7.806203 10.468157 0.209965 -0.490191 0.099776 -4.170928 -12.296939 0.511808 27.324891 75.950867 28.096891 0.796401 -11.543439 -4.046727 0.220438 0.731055 0.113392
-41.841396 62.110250 13.111961 177.625246 -51.726668 -0.131447 3.862319 27.003780 0.909074 0.563308 4.609824 0.134853 0.893084 7.309439 0.246017 2.877570 21.889685 1.135686 7.846899 16.423381 -1.584882 15.086470 -4.713250 -5.563339 7.485923 7.110441 7.521956 -2.135556 -18.122909 -15.365625 -66.320436 -28.453263 125.681614 -9.990005 -5.661861 -4.446719 -11.077965 5.662645 -2.341876 -1.724093 -13.782554 17.882713 76.353672 -42.795296 -121.706350 19.849892 -4.564950 -11.563668 3.202043 -15.103753 -7.346786 -0.726320 61.454522 -4.849781 1.426530 -7.802323 10.469270 0.214919 -0.493895 0.104364 -4.161659 -12.288324 0.508292 27.300295 75.944702 28.065422 0.793595 -11.545059 -4.040195 0.218930 0.734781 0.113219
-41.842676 62.111947 13.112281 177.617631 -51.738439 -0.116832 3.868899 27.011547 0.896200 0.572167 4.607018 0.124257 0.887830 7.311304 0.253806 2.885929 21.883932 1.110371 7.945673 16.495796 -1.622391 15.268250 -4.571276 -5.647865 7.507564 7.214886 7.537795 -2.384557 -18.198231 -15.209229 -66.632855 -28.413467 125.589516 -10.667206 -6.750751 -6.020868 -11.047877 5.799784 -2.342749 -1.483622 -13.893429 17.664538 76.757089 -42.689113 -121.673630 20.549358 -5.200058 -10.354455 3.209328 -15.091804 -7.349088 -0.729009 61.455642 -4.860652 1.426994 -7.803354 10.466077 0.215952 -0.497532 0.108315 -4.153213 -12.271806 0.501473 27.281259 75.938582 28.044202 0.785166 -11.546680 -4.039623 0.221646 0.736564 0.114961
